<?xml version="1.0" standalone="no"?>
<!DOCTYPE svg PUBLIC "-//W3C//DTD SVG 20010904//EN"
 "http://www.w3.org/TR/2001/REC-SVG-20010904/DTD/svg10.dtd">
<svg version="1.0" xmlns="http://www.w3.org/2000/svg"
 width="180.000000pt" height="180.000000pt" viewBox="0 0 180.000000 180.000000"
 preserveAspectRatio="xMidYMid meet">
<metadata>
Created by potrace 1.11, written by Peter Selinger 2001-2013
</metadata>
<g transform="translate(0.000000,180.000000) scale(0.100000,-0.100000)"
fill="#000000" stroke="none">
<path d="M970 1532 c-91 -45 -108 -180 -29 -236 21 -14 21 -15 -25 -37 -105
-49 -179 -207 -130 -277 15 -22 19 -22 247 -22 128 0 237 4 244 8 34 22 33
114 -1 181 -23 44 -76 92 -124 113 l-43 19 25 26 c54 54 53 143 -1 195 -52 49
-105 59 -163 30z m110 -27 c41 -21 60 -53 60 -100 0 -47 -19 -79 -60 -100 -37
-19 -63 -19 -100 0 -79 41 -78 159 2 198 41 21 61 21 98 2z m61 -270 c71 -36
110 -87 128 -166 14 -63 2 -79 -59 -79 l-49 0 2 38 c2 27 -2 37 -13 37 -10 0
-16 -12 -18 -37 l-3 -38 -100 0 -99 0 0 40 c0 28 -4 40 -14 40 -10 0 -16 -14
-18 -42 -3 -43 -3 -43 -38 -40 -64 7 -73 31 -44 117 43 126 205 190 325 130z"/>
<path d="M424 937 c-2 -7 -3 -89 -2 -182 l3 -170 73 -3 c71 -3 72 -3 72 23 0
14 2 25 5 25 3 0 64 -21 137 -46 188 -64 193 -64 442 59 108 53 196 100 196
105 0 17 -47 53 -82 62 -36 10 -59 6 -146 -29 -65 -26 -72 -26 -72 -2 0 33
-38 51 -108 51 -49 0 -70 5 -89 20 -39 31 -118 50 -205 50 -77 0 -78 0 -78 25
0 24 -2 25 -70 25 -48 0 -72 -4 -76 -13z m119 -29 c-2 -5 -3 -73 -3 -153 l0
-145 -45 0 -45 0 0 156 0 155 48 -3 c26 -2 46 -6 45 -10z m277 -76 c42 -26 61
-32 110 -32 74 0 90 -6 90 -36 0 -30 -14 -33 -155 -37 -151 -3 -144 -21 11
-25 l121 -3 115 46 c119 46 163 51 188 20 9 -11 -27 -32 -167 -101 -230 -112
-243 -114 -428 -46 l-130 47 -3 89 c-2 49 0 96 3 104 4 12 24 14 99 10 85 -3
99 -7 146 -36z"/>
<path d="M565 410 c4 -6 11 -8 16 -5 14 9 11 15 -7 15 -8 0 -12 -5 -9 -10z"/>
<path d="M531 396 c-7 -8 -16 -43 -22 -78 -11 -68 -14 -74 -44 -81 -19 -4 -19
-5 1 -6 12 0 27 5 33 13 10 12 53 166 46 166 -1 0 -8 -6 -14 -14z"/>
<path d="M326 392 c-2 -4 -7 -24 -11 -45 -4 -21 -14 -45 -22 -52 -13 -13 -11
-15 14 -14 15 0 22 3 16 6 -9 3 -10 10 -3 24 14 25 25 24 37 -4 9 -20 18 -24
60 -24 26 0 41 2 32 4 -21 5 -22 48 -1 65 13 11 15 10 10 -9 -4 -13 -2 -23 3
-23 15 0 23 30 11 42 -14 14 -50 -15 -63 -49 -11 -29 -23 -29 -37 1 -8 19 -7
27 6 40 16 16 16 18 -2 32 -22 15 -42 18 -50 6z m42 -25 c2 -10 -4 -20 -13
-23 -21 -9 -28 0 -20 26 8 24 28 22 33 -3z"/>
<path d="M280 375 c-7 -9 -10 -18 -7 -21 3 -3 10 4 17 15 13 25 8 27 -10 6z"/>
<path d="M1186 368 c-13 -64 -13 -80 1 -85 8 -3 20 0 26 6 9 9 8 11 -7 5 -20
-8 -20 -11 -1 79 2 9 0 17 -5 17 -5 0 -12 -10 -14 -22z"/>
<path d="M1516 353 c-3 -21 -6 -46 -6 -55 0 -19 25 -25 35 -8 4 6 -1 7 -11 3
-12 -5 -15 -2 -11 13 14 49 18 84 9 84 -5 0 -12 -17 -16 -37z"/>
<path d="M588 353 c-35 -41 -32 -74 6 -72 16 1 17 2 4 6 -25 6 -22 18 8 32 15
7 24 18 22 28 -4 24 -22 26 -40 6z m13 -26 c-16 -16 -26 0 -10 19 9 11 15 12
17 4 2 -6 -1 -17 -7 -23z"/>
<path d="M666 330 c-8 -53 -3 -60 17 -21 12 24 13 33 2 47 -10 15 -13 12 -19
-26z"/>
<path d="M710 360 c-13 -8 -12 -10 3 -10 9 0 17 5 17 10 0 12 -1 12 -20 0z"/>
<path d="M855 351 c3 -11 2 -22 -4 -25 -13 -8 -1 -46 15 -46 7 0 16 4 19 10 3
5 0 7 -9 4 -12 -4 -13 1 -6 30 8 35 5 46 -12 46 -5 0 -7 -9 -3 -19z"/>
<path d="M1012 354 c-12 -8 -22 -11 -22 -5 0 6 -7 11 -15 11 -8 0 -12 -6 -9
-13 3 -8 0 -33 -5 -58 -10 -44 -5 -72 6 -31 3 12 13 22 23 22 29 0 66 55 51
78 -5 9 -13 7 -29 -4z m18 -15 c0 -20 -21 -49 -35 -49 -20 0 -19 19 2 42 18
20 33 24 33 7z"/>
<path d="M1117 347 c3 -14 -3 -29 -15 -40 -26 -24 -35 -8 -16 28 15 29 15 29
-6 10 -22 -19 -28 -65 -8 -65 6 0 20 7 30 17 17 15 18 15 18 0 0 -10 3 -17 8
-17 4 0 8 20 10 45 1 33 -2 45 -12 45 -8 0 -12 -8 -9 -23z"/>
<path d="M1255 360 c-11 -5 -14 -9 -7 -9 9 -1 11 -11 6 -36 -5 -28 -3 -35 9
-35 9 0 19 5 23 12 5 7 3 8 -6 3 -10 -6 -12 1 -7 33 3 23 4 42 4 41 -1 0 -11
-4 -22 -9z"/>
<path d="M1319 349 c-28 -28 -22 -63 11 -66 14 -1 18 0 9 3 -21 6 -21 50 -1
66 13 11 15 10 9 -11 -5 -22 -5 -23 10 -9 15 16 11 38 -8 38 -5 0 -18 -9 -30
-21z"/>
<path d="M1396 362 c-4 -7 -3 -12 3 -12 6 0 6 -11 0 -32 -5 -17 -6 -34 -4 -37
6 -5 5 -6 25 33 23 45 43 46 35 2 -6 -29 -4 -36 8 -36 9 0 19 5 23 12 4 7 3 8
-4 4 -8 -5 -12 4 -12 28 0 36 -20 50 -35 25 -5 -6 -11 -4 -19 7 -9 12 -15 14
-20 6z"/>
<path d="M806 338 c-30 -43 -14 -74 24 -47 13 9 12 10 -2 5 -21 -6 -24 14 -8
45 14 26 5 24 -14 -3z"/>
<path d="M918 233 c7 -3 16 -2 19 1 4 3 -2 6 -13 5 -11 0 -14 -3 -6 -6z"/>
</g>
</svg>
